PathFileType	4	(X/Y/Z)	G:\Shared drives\HIT\Data\HapticPilot\Subject1\Edited\LHJC1.trc
DataRate	CameraRate	NumFrames	NumMarkers	Units	OrigDataRate	OrigDataStartFrame	OrigNumFrames
50.00	50.00	       9	38	mm	50.00	1	       684
Frame#	Time	r_knee			r_shank(antsup)			r_ankle			r_calc			r_5meta			r_toe			L_knee			L_shank(ant_sup)			L_ankle			L_calc			L_5meta			L_toe			r_mknee			r_mankle			L_mknee			L_mankle			r_sh2			r_sh3			r_sh4			L_sh2			L_sh3			r_thigh1			r_thigh2			r_thigh3			r_thigh4			r_thigh5			L_thigh1			L_thigh2			L_thigh3			L_thigh4			r.ASIS			r.PSIS			L.ASIS			L.PSIS			C7			R_Shoulder			L_Shoulder			Sternum			
		X1	Y1	Z1	X2	Y2	Z2	X3	Y3	Z3	X4	Y4	Z4	X5	Y5	Z5	X6	Y6	Z6	X7	Y7	Z7	X8	Y8	Z8	X9	Y9	Z9	X10	Y10	Z10	X11	Y11	Z11	X12	Y12	Z12	X13	Y13	Z13	X14	Y14	Z14	X15	Y15	Z15	X16	Y16	Z16	X17	Y17	Z17	X18	Y18	Z18	X19	Y19	Z19	X20	Y20	Z20	X21	Y21	Z21	X22	Y22	Z22	X23	Y23	Z23	X24	Y24	Z24	X25	Y25	Z25	X26	Y26	Z26	X27	Y27	Z27	X28	Y28	Z28	X29	Y29	Z29	X30	Y30	Z30	X31	Y31	Z31	X32	Y32	Z32	X33	Y33	Z33	X34	Y34	Z34	X35	Y35	Z35	X36	Y36	Z36	X37	Y37	Z37	X38	Y38	Z38	

1	0.000	757.11237	284.28940	574.66321	766.45770	276.69617	490.64920	707.75995	285.82605	114.81554	622.05902	333.78830	71.92933	817.32513	249.55548	39.71280	861.01245	309.96201	73.26913	767.36188	612.58966	571.22382	792.34180	612.81671	457.32135	707.18433	617.37213	115.34296	628.46771	572.46259	74.27386	824.91528	657.40649	42.41590	868.57758	598.11407	71.22482	759.62213	409.16177	553.02765	727.13971	379.99591	120.99923	781.37158	490.59381	558.17157	733.95551	526.34259	120.37501	760.44122	274.52158	370.85110	690.52399	269.09967	492.42328	677.41602	265.92776	376.87881	706.00854	635.15442	477.32944	693.66382	638.20612	355.91183	842.87622	271.65720	894.12433	837.57214	271.01492	779.33105	792.25537	257.68521	748.77881	729.68317	260.74997	891.96564	731.00323	270.28525	774.31329	856.85553	628.89935	840.02271	858.38403	621.73529	701.86102	742.01215	650.62311	839.47888	746.33313	633.03510	703.78949	874.13519	323.65976	1088.38550	682.36145	411.76254	1125.26147	875.61676	579.52301	1096.85376	687.34338	494.18454	1125.62598	735.21448	447.08871	1608.79443	781.66846	281.79648	1579.73010	795.94867	625.86346	1568.36182	872.63434	444.83875	1531.16772	
2	0.020	757.15393	284.30832	574.70721	766.47235	276.78430	490.59128	707.76965	285.86163	114.80892	622.04138	333.80975	71.94170	817.34363	249.56451	39.74135	860.99786	309.96680	73.22684	767.48041	612.58075	571.23944	792.41553	612.80682	457.36069	707.15106	617.40082	115.35604	628.45526	572.47400	74.29279	824.91754	657.37646	42.44288	868.56378	598.09259	71.21490	759.64740	409.14487	553.04907	727.12286	380.00723	121.01952	781.37659	490.62711	558.17175	734.03754	526.26563	120.49158	760.42004	274.56799	370.83569	690.56641	269.09705	492.47699	677.45789	265.90118	376.89041	706.02911	635.18475	477.33231	693.68103	638.22937	355.88629	842.86810	271.65637	894.15778	837.66083	270.95889	779.40997	792.22614	257.70007	748.76672	729.65942	260.76166	891.98846	731.02240	270.16116	774.38745	856.95978	628.88611	840.02197	858.45026	621.75024	701.88348	741.98254	650.57263	839.54645	746.41498	632.98663	703.76703	874.07098	323.62451	1088.41479	682.27417	411.78644	1125.25830	875.67621	579.54230	1096.86658	687.25470	494.22354	1125.54272	735.17236	447.03622	1608.75708	781.83295	281.78448	1579.72241	795.79321	625.85028	1568.36609	872.63239	444.86435	1531.16553	
3	0.040	757.19147	284.32788	574.68365	766.49255	276.79666	490.60828	707.74768	285.85510	114.77890	622.05389	333.79892	71.95222	817.36603	249.56821	39.73307	861.01617	309.97076	73.23830	767.40222	612.56073	571.21844	792.36029	612.77985	457.28387	707.17188	617.38135	115.37254	628.44702	572.47601	74.28592	824.90710	657.37970	42.45947	868.57721	598.09912	71.22942	759.66809	409.19577	553.05164	727.14288	379.99225	121.01336	781.15106	490.65601	558.07483	734.01624	526.31921	120.48953	760.43402	274.61700	370.84424	690.60712	269.11429	492.50043	677.51312	265.92993	376.91724	706.04321	635.18909	477.30478	693.69141	638.22473	355.88031	842.86169	271.64758	894.21356	837.64233	271.00128	779.31909	792.25238	257.74057	748.75366	729.63678	260.71875	891.99951	731.04907	270.28909	774.31097	857.05536	628.91547	840.05438	858.54602	621.74902	701.84991	742.12128	650.68738	839.57855	746.41895	633.17767	703.92328	874.02167	323.64078	1088.43970	682.28625	411.77789	1125.26196	875.70502	579.52496	1096.85522	687.21484	494.19772	1125.63354	735.18420	446.98102	1608.78137	781.96661	281.79953	1579.71997	795.74603	625.85687	1568.32397	872.61194	444.91235	1531.18713	
4	0.060	757.21521	284.35733	574.72198	766.51001	276.78964	490.64145	707.75867	285.83963	114.81041	622.04541	333.79837	71.99893	817.38129	249.59158	39.73870	860.99133	309.99921	73.24843	767.45355	612.51971	571.23553	792.36566	612.74261	457.26099	707.14117	617.40570	115.38392	628.44116	572.47034	74.32130	824.92090	657.35590	42.47548	868.55060	598.13489	71.23384	759.70343	409.17029	553.09076	727.14728	380.00577	121.03010	781.25690	490.60712	558.11426	733.99945	526.31085	120.50401	760.44147	274.62131	370.85095	690.61957	269.15213	492.51135	677.52209	265.92783	376.95450	706.03650	635.17786	477.32196	693.67767	638.20886	355.92801	842.86847	271.58313	894.15466	837.59491	270.98294	779.35406	792.14331	258.22488	748.34009	729.57697	260.65295	892.03546	731.31250	270.08075	774.87512	857.11432	628.88593	840.01044	858.59277	621.71075	701.84540	742.16437	650.67584	839.57581	746.47363	633.09656	703.79236	874.02875	323.59091	1088.48621	682.07074	411.76981	1125.27600	875.68195	579.47522	1096.84412	687.18884	494.15518	1125.58044	735.12909	446.97519	1608.78809	782.00629	281.81665	1579.76648	795.60327	625.84198	1568.33057	872.59723	444.90079	1531.15820	
5	0.080	757.23572	284.31512	574.70898	766.53259	276.76349	490.66852	707.75452	285.86780	114.79884	622.02338	333.82440	71.97378	817.38055	249.57025	39.73425	861.01331	309.97998	73.24181	767.46716	612.49390	571.23328	792.36957	612.77765	457.28561	707.18707	617.35779	115.37115	628.45886	572.46429	74.28908	824.93945	657.37152	42.46816	868.57855	598.08807	71.24035	759.68774	409.16284	553.06439	727.14996	379.99390	121.07553	781.41870	490.58243	558.15253	734.02386	526.30688	120.49683	760.44891	274.60254	370.87640	690.63654	269.13974	492.48453	677.50043	265.94388	376.94098	706.02228	635.18329	477.34311	693.68549	638.21106	355.91071	842.82996	271.58963	894.23975	837.61798	270.98416	779.34851	792.26929	257.67465	748.76691	729.63037	260.66922	891.99884	731.06702	270.22687	774.27820	857.07300	628.85541	840.00592	858.63538	621.70227	701.86969	742.14301	650.65131	839.50128	746.48712	633.19489	703.92590	873.93201	323.57779	1088.43079	682.08026	411.63663	1125.23743	875.62213	579.45142	1096.84790	687.08966	494.13528	1125.59814	735.12787	446.87793	1608.81018	782.05457	281.79263	1579.83521	795.54669	625.85266	1568.29858	872.57886	444.93073	1531.16772	
6	0.100	757.22607	284.26761	574.71613	766.52557	276.78391	490.62964	707.76056	285.86887	114.81389	622.03412	333.83270	71.94702	817.36304	249.58658	39.73599	861.00494	310.00955	73.26063	767.42413	612.48785	571.21948	792.35852	612.75775	457.31732	707.16064	617.39197	115.38129	628.45642	572.48273	74.30112	824.92181	657.39709	42.46902	868.55664	598.11157	71.19116	759.70428	409.13922	553.06781	727.11835	380.02185	121.03475	781.46210	490.56744	558.23248	734.05597	526.30731	120.48904	760.45514	274.57568	370.86649	690.65924	269.07791	492.53513	677.50702	265.91330	376.94516	706.05713	635.12531	477.34085	693.68164	638.20532	355.95261	842.84625	271.54001	894.24487	837.54541	270.94379	779.37421	792.29865	257.65573	748.73657	729.61615	260.61032	891.98560	731.05560	270.19226	774.32892	857.05670	628.77960	840.04736	858.55115	621.65137	701.89532	742.17230	650.64221	839.50568	746.45978	633.16418	703.89594	873.91724	323.50815	1088.46558	682.04651	411.59085	1125.19092	875.51514	579.39337	1096.87830	687.08649	494.05524	1125.52222	735.02167	447.01563	1608.74609	782.04718	281.78256	1579.87976	795.52393	625.84851	1568.21570	872.54712	444.92691	1531.15649	
7	0.120	757.25403	284.19641	574.71649	766.50360	276.73871	490.61493	707.76117	285.88947	114.81675	622.03986	333.82693	71.94259	817.34607	249.58014	39.73747	861.00891	310.01700	73.24907	767.39392	612.41748	571.20544	792.37109	612.74414	457.31372	707.18036	617.39911	115.35732	628.45935	572.49255	74.27834	824.91901	657.39276	42.43457	868.56635	598.13568	71.22129	759.73517	409.09491	553.08728	727.12787	380.02850	121.02233	781.26825	490.54626	558.10767	733.95691	526.28296	120.49900	760.44971	274.57285	370.89227	690.66974	269.07336	492.51215	677.51221	265.89301	376.95422	706.01373	635.11731	477.34747	693.58313	638.13501	355.98346	842.85272	271.49255	894.27026	837.35809	270.84705	779.32373	792.30121	257.61331	748.76770	729.61951	260.58328	891.99121	731.03534	270.25757	774.31787	856.95581	628.73352	840.09808	858.51080	621.58759	701.91492	742.05505	650.50275	839.49103	746.40369	633.02216	703.78088	873.87445	323.45197	1088.50256	682.00739	411.46423	1125.23242	875.47437	579.34088	1096.85352	686.97919	494.00134	1125.54651	734.99603	446.97440	1608.78223	782.01825	281.77985	1579.91492	795.53882	625.89734	1568.14331	872.56311	444.93216	1531.13806	
8	0.140	757.27435	284.15186	574.70129	766.57440	276.66263	490.60928	707.75165	285.86200	114.80360	622.03601	333.80777	71.93118	817.35919	249.58861	39.72188	861.01904	309.97235	73.26019	767.36914	612.33710	571.17908	792.28827	612.69757	457.29770	707.16418	617.37939	115.37516	628.44543	572.47986	74.28153	824.91528	657.39453	42.42662	868.55322	598.12805	71.20562	759.72235	409.02020	553.12854	727.12640	380.00131	121.01405	781.18970	490.47528	558.10303	734.04163	526.30280	120.51715	760.45959	274.51550	370.89661	690.65741	269.03598	492.49142	677.46521	265.83890	376.95523	705.96375	635.05334	477.35733	693.57745	638.11810	355.92621	842.81927	271.46158	894.23541	837.50867	270.84601	779.33893	792.29895	257.57568	748.76172	729.58173	260.36920	892.01178	731.03973	270.10773	774.31781	856.81073	628.66315	840.08936	858.38440	621.49786	701.93689	741.95892	650.42999	839.51440	746.29907	632.99365	703.84375	873.82672	323.40424	1088.50867	681.93610	411.31747	1125.19885	875.32813	579.25372	1096.89783	686.79779	493.86163	1125.52649	734.95380	446.97916	1608.77954	781.95667	281.77759	1579.94861	795.57965	625.91296	1568.12073	872.54333	444.85272	1531.14771	
9	0.160	757.25995	284.05917	574.69293	766.52783	276.57620	490.56454	707.73163	285.82990	114.78650	622.03949	333.80298	71.95053	817.35254	249.56432	39.74959	860.99298	309.99326	73.26122	767.24719	612.26575	571.25781	792.23248	612.60938	457.35507	707.14661	617.39380	115.37929	628.44733	572.47626	74.27904	824.94507	657.38934	42.48690	868.55750	598.11041	71.23110	759.78345	408.93228	553.11761	727.12494	379.98758	121.03587	781.33813	490.44101	558.18201	734.05347	526.24854	120.51289	760.44690	274.44275	370.80719	690.61609	268.95554	492.44366	677.47766	265.81906	376.88391	705.93500	634.98798	477.36688	693.56140	638.08551	355.97678	842.78357	271.37112	894.23114	837.48608	270.71494	779.38336	792.30847	257.47897	748.70844	729.55408	260.23611	891.98022	731.04694	270.01016	774.35907	856.67151	628.57874	840.08429	858.25934	621.41815	701.95502	741.80798	650.35004	839.57703	746.27094	632.78680	703.88715	873.75122	323.26834	1088.53186	681.81403	411.22476	1125.16162	875.22083	579.12219	1096.87683	686.55872	493.67099	1125.54785	734.82056	447.10913	1608.75598	781.85052	281.79193	1580.00085	795.61829	625.92706	1568.08264	872.48267	444.87646	1531.14343	
